<svg width="8" height="8" viewBox="0 0 8 8" fill="none" xmlns="http://www.w3.org/2000/svg">
<path d="M7.23051 3.80468C7.23051 4.27343 7.14651 4.71093 6.97851 5.11718C6.81061 5.51952 6.58211 5.86913 6.29301 6.16601C6.00391 6.45898 5.66411 6.6914 5.27351 6.86327C4.88671 7.03124 4.47071 7.11523 4.02541 7.11523C3.58401 7.11523 3.16801 7.03124 2.77741 6.86327C2.39066 6.6914 2.05081 6.45898 1.75784 6.16601C1.46878 5.86913 1.24027 5.51952 1.0723 5.11718C0.904334 4.71093 0.820343 4.27343 0.820343 3.80468C0.820343 3.32812 0.904334 2.88671 1.0723 2.48046C1.24027 2.07421 1.46878 1.7246 1.75784 1.43163C2.05081 1.13476 2.39066 0.902342 2.77741 0.734372C3.16801 0.566402 3.58401 0.482422 4.02541 0.482422C4.47071 0.482422 4.88671 0.562492 5.27351 0.722652C5.66411 0.878902 6.00391 1.10351 6.29301 1.39648C6.58211 1.68554 6.81061 2.03515 6.97851 2.44531C7.14651 2.85156 7.23051 3.30468 7.23051 3.80468ZM5.61921 3.80468C5.61921 3.54687 5.57621 3.31445 5.49031 3.10742C5.40821 2.89648 5.29491 2.71679 5.15041 2.56835C5.00591 2.41601 4.83601 2.30077 4.64061 2.22265C4.44921 2.14062 4.24421 2.0996 4.02541 2.0996C3.80671 2.0996 3.59961 2.14062 3.40431 2.22265C3.21291 2.30077 3.04491 2.41601 2.90041 2.56835C2.75981 2.71679 2.64847 2.89648 2.56644 3.10742C2.48441 3.31445 2.44339 3.54687 2.44339 3.80468C2.44339 4.04687 2.48441 4.27148 2.56644 4.47851L2.41994 5.49804L3.40431 5.38085C3.59961 5.46679 3.80671 5.50976 4.02541 5.50976C4.24421 5.50976 4.44921 5.46874 4.64061 5.38671C4.83601 5.30468 5.00591 5.18945 5.15041 5.04101C5.29491 4.89257 5.40821 4.71288 5.49031 4.50195C5.57621 4.29101 5.61921 4.05859 5.61921 3.80468Z" fill="#2FE2DE"/>
<path d="M7.23051 3.80468C7.23051 4.27343 7.14651 4.71093 6.97851 5.11718C6.81061 5.51952 6.58211 5.86913 6.29301 6.16601C6.00391 6.45898 5.66411 6.6914 5.27351 6.86327C4.88671 7.03124 4.47071 7.11523 4.02541 7.11523C3.58401 7.11523 3.16801 7.03124 2.77741 6.86327C2.39066 6.6914 2.05081 6.45898 1.75784 6.16601C1.46878 5.86913 1.24027 5.51952 1.0723 5.11718C0.904334 4.71093 0.820343 4.27343 0.820343 3.80468C0.820343 3.32812 0.904334 2.88671 1.0723 2.48046C1.24027 2.07421 1.46878 1.7246 1.75784 1.43163C2.05081 1.13476 2.39066 0.902342 2.77741 0.734372C3.16801 0.566402 3.58401 0.482422 4.02541 0.482422C4.47071 0.482422 4.88671 0.562492 5.27351 0.722652C5.66411 0.878902 6.00391 1.10351 6.29301 1.39648C6.58211 1.68554 6.81061 2.03515 6.97851 2.44531C7.14651 2.85156 7.23051 3.30468 7.23051 3.80468ZM5.61921 3.80468C5.61921 3.54687 5.57621 3.31445 5.49031 3.10742C5.40821 2.89648 5.29491 2.71679 5.15041 2.56835C5.00591 2.41601 4.83601 2.30077 4.64061 2.22265C4.44921 2.14062 4.24421 2.0996 4.02541 2.0996C3.80671 2.0996 3.59961 2.14062 3.40431 2.22265C3.21291 2.30077 3.04491 2.41601 2.90041 2.56835C2.75981 2.71679 2.64847 2.89648 2.56644 3.10742C2.48441 3.31445 2.44339 3.54687 2.44339 3.80468C2.44339 4.04687 2.48441 4.27148 2.56644 4.47851L2.41994 5.49804L3.40431 5.38085C3.59961 5.46679 3.80671 5.50976 4.02541 5.50976C4.24421 5.50976 4.44921 5.46874 4.64061 5.38671C4.83601 5.30468 5.00591 5.18945 5.15041 5.04101C5.29491 4.89257 5.40821 4.71288 5.49031 4.50195C5.57621 4.29101 5.61921 4.05859 5.61921 3.80468Z" fill="#2FE2DE"/>
</svg>
