<svg width="7" height="8" viewBox="0 0 7 8" fill="none" xmlns="http://www.w3.org/2000/svg">
<path d="M6.82034 3.80468C6.82034 4.27343 6.73634 4.71093 6.56834 5.11718C6.40044 5.51952 6.17194 5.86913 5.88284 6.16601C5.59374 6.45898 5.25394 6.6914 4.86334 6.86327C4.47654 7.03124 4.06054 7.11523 3.61524 7.11523C3.17384 7.11523 2.75784 7.03124 2.36724 6.86327C1.98049 6.6914 1.64064 6.45898 1.34767 6.16601C1.05861 5.86913 0.830102 5.51952 0.662132 5.11718C0.494162 4.71093 0.410172 4.27343 0.410172 3.80468C0.410172 3.32812 0.494162 2.88671 0.662132 2.48046C0.830102 2.07421 1.05861 1.7246 1.34767 1.43163C1.64064 1.13476 1.98049 0.902342 2.36724 0.734372C2.75784 0.566402 3.17384 0.482422 3.61524 0.482422C4.06054 0.482422 4.47654 0.562492 4.86334 0.722652C5.25394 0.878902 5.59374 1.10351 5.88284 1.39648C6.17194 1.68554 6.40044 2.03515 6.56834 2.44531C6.73634 2.85156 6.82034 3.30468 6.82034 3.80468ZM5.20904 3.80468C5.20904 3.54687 5.16604 3.31445 5.08014 3.10742C4.99804 2.89648 4.88474 2.71679 4.74024 2.56835C4.59574 2.41601 4.42584 2.30077 4.23044 2.22265C4.03904 2.14062 3.83404 2.0996 3.61524 2.0996C3.39654 2.0996 3.18944 2.14062 2.99414 2.22265C2.80274 2.30077 2.63474 2.41601 2.49024 2.56835C2.34964 2.71679 2.2383 2.89648 2.15627 3.10742C2.07424 3.31445 2.03322 3.54687 2.03322 3.80468C2.03322 4.04687 2.07424 4.27148 2.15627 4.47851L2.00977 5.49804L2.99414 5.38085C3.18944 5.46679 3.39654 5.50976 3.61524 5.50976C3.83404 5.50976 4.03904 5.46874 4.23044 5.38671C4.42584 5.30468 4.59574 5.18945 4.74024 5.04101C4.88474 4.89257 4.99804 4.71288 5.08014 4.50195C5.16604 4.29101 5.20904 4.05859 5.20904 3.80468Z" fill="#3A3961"/>
<path d="M6.82034 3.80468C6.82034 4.27343 6.73634 4.71093 6.56834 5.11718C6.40044 5.51952 6.17194 5.86913 5.88284 6.16601C5.59374 6.45898 5.25394 6.6914 4.86334 6.86327C4.47654 7.03124 4.06054 7.11523 3.61524 7.11523C3.17384 7.11523 2.75784 7.03124 2.36724 6.86327C1.98049 6.6914 1.64064 6.45898 1.34767 6.16601C1.05861 5.86913 0.830102 5.51952 0.662132 5.11718C0.494162 4.71093 0.410172 4.27343 0.410172 3.80468C0.410172 3.32812 0.494162 2.88671 0.662132 2.48046C0.830102 2.07421 1.05861 1.7246 1.34767 1.43163C1.64064 1.13476 1.98049 0.902342 2.36724 0.734372C2.75784 0.566402 3.17384 0.482422 3.61524 0.482422C4.06054 0.482422 4.47654 0.562492 4.86334 0.722652C5.25394 0.878902 5.59374 1.10351 5.88284 1.39648C6.17194 1.68554 6.40044 2.03515 6.56834 2.44531C6.73634 2.85156 6.82034 3.30468 6.82034 3.80468ZM5.20904 3.80468C5.20904 3.54687 5.16604 3.31445 5.08014 3.10742C4.99804 2.89648 4.88474 2.71679 4.74024 2.56835C4.59574 2.41601 4.42584 2.30077 4.23044 2.22265C4.03904 2.14062 3.83404 2.0996 3.61524 2.0996C3.39654 2.0996 3.18944 2.14062 2.99414 2.22265C2.80274 2.30077 2.63474 2.41601 2.49024 2.56835C2.34964 2.71679 2.2383 2.89648 2.15627 3.10742C2.07424 3.31445 2.03322 3.54687 2.03322 3.80468C2.03322 4.04687 2.07424 4.27148 2.15627 4.47851L2.00977 5.49804L2.99414 5.38085C3.18944 5.46679 3.39654 5.50976 3.61524 5.50976C3.83404 5.50976 4.03904 5.46874 4.23044 5.38671C4.42584 5.30468 4.59574 5.18945 4.74024 5.04101C4.88474 4.89257 4.99804 4.71288 5.08014 4.50195C5.16604 4.29101 5.20904 4.05859 5.20904 3.80468Z" fill="#3A3961"/>
</svg>
