<svg width="7" height="8" viewBox="0 0 7 8" fill="none" xmlns="http://www.w3.org/2000/svg">
<path d="M7.05086 3.80468C7.05086 4.27343 6.96686 4.71093 6.79886 5.11718C6.63096 5.51952 6.40246 5.86913 6.11336 6.16601C5.82426 6.45898 5.48446 6.6914 5.09386 6.86327C4.70706 7.03124 4.29106 7.11523 3.84576 7.11523C3.40436 7.11523 2.98836 7.03124 2.59776 6.86327C2.21101 6.6914 1.87116 6.45898 1.57819 6.16601C1.28913 5.86913 1.06062 5.51952 0.892647 5.11718C0.724677 4.71093 0.640686 4.27343 0.640686 3.80468C0.640686 3.32812 0.724677 2.88671 0.892647 2.48046C1.06062 2.07421 1.28913 1.7246 1.57819 1.43163C1.87116 1.13476 2.21101 0.902342 2.59776 0.734372C2.98836 0.566402 3.40436 0.482422 3.84576 0.482422C4.29106 0.482422 4.70706 0.562492 5.09386 0.722652C5.48446 0.878902 5.82426 1.10351 6.11336 1.39648C6.40246 1.68554 6.63096 2.03515 6.79886 2.44531C6.96686 2.85156 7.05086 3.30468 7.05086 3.80468ZM5.43956 3.80468C5.43956 3.54687 5.39656 3.31445 5.31066 3.10742C5.22856 2.89648 5.11526 2.71679 4.97076 2.56835C4.82626 2.41601 4.65636 2.30077 4.46096 2.22265C4.26956 2.14062 4.06456 2.0996 3.84576 2.0996C3.62706 2.0996 3.41996 2.14062 3.22466 2.22265C3.03326 2.30077 2.86526 2.41601 2.72076 2.56835C2.58016 2.71679 2.46882 2.89648 2.38679 3.10742C2.30476 3.31445 2.26374 3.54687 2.26374 3.80468C2.26374 4.04687 2.30476 4.27148 2.38679 4.47851L2.24029 5.49804L3.22466 5.38085C3.41996 5.46679 3.62706 5.50976 3.84576 5.50976C4.06456 5.50976 4.26956 5.46874 4.46096 5.38671C4.65636 5.30468 4.82626 5.18945 4.97076 5.04101C5.11526 4.89257 5.22856 4.71288 5.31066 4.50195C5.39656 4.29101 5.43956 4.05859 5.43956 3.80468Z" fill="#D51454"/>
<path d="M7.05086 3.80468C7.05086 4.27343 6.96686 4.71093 6.79886 5.11718C6.63096 5.51952 6.40246 5.86913 6.11336 6.16601C5.82426 6.45898 5.48446 6.6914 5.09386 6.86327C4.70706 7.03124 4.29106 7.11523 3.84576 7.11523C3.40436 7.11523 2.98836 7.03124 2.59776 6.86327C2.21101 6.6914 1.87116 6.45898 1.57819 6.16601C1.28913 5.86913 1.06062 5.51952 0.892647 5.11718C0.724677 4.71093 0.640686 4.27343 0.640686 3.80468C0.640686 3.32812 0.724677 2.88671 0.892647 2.48046C1.06062 2.07421 1.28913 1.7246 1.57819 1.43163C1.87116 1.13476 2.21101 0.902342 2.59776 0.734372C2.98836 0.566402 3.40436 0.482422 3.84576 0.482422C4.29106 0.482422 4.70706 0.562492 5.09386 0.722652C5.48446 0.878902 5.82426 1.10351 6.11336 1.39648C6.40246 1.68554 6.63096 2.03515 6.79886 2.44531C6.96686 2.85156 7.05086 3.30468 7.05086 3.80468ZM5.43956 3.80468C5.43956 3.54687 5.39656 3.31445 5.31066 3.10742C5.22856 2.89648 5.11526 2.71679 4.97076 2.56835C4.82626 2.41601 4.65636 2.30077 4.46096 2.22265C4.26956 2.14062 4.06456 2.0996 3.84576 2.0996C3.62706 2.0996 3.41996 2.14062 3.22466 2.22265C3.03326 2.30077 2.86526 2.41601 2.72076 2.56835C2.58016 2.71679 2.46882 2.89648 2.38679 3.10742C2.30476 3.31445 2.26374 3.54687 2.26374 3.80468C2.26374 4.04687 2.30476 4.27148 2.38679 4.47851L2.24029 5.49804L3.22466 5.38085C3.41996 5.46679 3.62706 5.50976 3.84576 5.50976C4.06456 5.50976 4.26956 5.46874 4.46096 5.38671C4.65636 5.30468 4.82626 5.18945 4.97076 5.04101C5.11526 4.89257 5.22856 4.71288 5.31066 4.50195C5.39656 4.29101 5.43956 4.05859 5.43956 3.80468Z" fill="#D51454"/>
</svg>
