<svg width="7" height="8" viewBox="0 0 7 8" fill="none" xmlns="http://www.w3.org/2000/svg">
<path d="M6.64069 3.80468C6.64069 4.27343 6.55669 4.71093 6.38869 5.11718C6.22079 5.51952 5.99229 5.86913 5.70319 6.16601C5.41409 6.45898 5.07429 6.6914 4.68369 6.86327C4.29689 7.03124 3.88089 7.11523 3.43559 7.11523C2.99419 7.11523 2.57818 7.03124 2.18758 6.86327C1.80083 6.6914 1.46098 6.45898 1.16801 6.16601C0.878955 5.86913 0.650445 5.51952 0.482475 5.11718C0.314505 4.71093 0.230515 4.27343 0.230515 3.80468C0.230515 3.32812 0.314505 2.88671 0.482475 2.48046C0.650445 2.07421 0.878955 1.7246 1.16801 1.43163C1.46098 1.13476 1.80083 0.902342 2.18758 0.734372C2.57818 0.566402 2.99419 0.482422 3.43559 0.482422C3.88089 0.482422 4.29689 0.562492 4.68369 0.722652C5.07429 0.878902 5.41409 1.10351 5.70319 1.39648C5.99229 1.68554 6.22079 2.03515 6.38869 2.44531C6.55669 2.85156 6.64069 3.30468 6.64069 3.80468ZM5.02938 3.80468C5.02938 3.54687 4.98639 3.31445 4.90049 3.10742C4.81839 2.89648 4.70509 2.71679 4.56059 2.56835C4.41609 2.41601 4.24619 2.30077 4.05079 2.22265C3.85939 2.14062 3.65439 2.0996 3.43559 2.0996C3.21689 2.0996 3.00978 2.14062 2.81448 2.22265C2.62308 2.30077 2.45509 2.41601 2.31059 2.56835C2.16999 2.71679 2.05864 2.89648 1.97661 3.10742C1.89458 3.31445 1.85357 3.54687 1.85357 3.80468C1.85357 4.04687 1.89458 4.27148 1.97661 4.47851L1.83012 5.49804L2.81448 5.38085C3.00978 5.46679 3.21689 5.50976 3.43559 5.50976C3.65439 5.50976 3.85939 5.46874 4.05079 5.38671C4.24619 5.30468 4.41609 5.18945 4.56059 5.04101C4.70509 4.89257 4.81839 4.71288 4.90049 4.50195C4.98639 4.29101 5.02938 4.05859 5.02938 3.80468Z" fill="#E5E894"/>
<path d="M6.64069 3.80468C6.64069 4.27343 6.55669 4.71093 6.38869 5.11718C6.22079 5.51952 5.99229 5.86913 5.70319 6.16601C5.41409 6.45898 5.07429 6.6914 4.68369 6.86327C4.29689 7.03124 3.88089 7.11523 3.43559 7.11523C2.99419 7.11523 2.57818 7.03124 2.18758 6.86327C1.80083 6.6914 1.46098 6.45898 1.16801 6.16601C0.878955 5.86913 0.650445 5.51952 0.482475 5.11718C0.314505 4.71093 0.230515 4.27343 0.230515 3.80468C0.230515 3.32812 0.314505 2.88671 0.482475 2.48046C0.650445 2.07421 0.878955 1.7246 1.16801 1.43163C1.46098 1.13476 1.80083 0.902342 2.18758 0.734372C2.57818 0.566402 2.99419 0.482422 3.43559 0.482422C3.88089 0.482422 4.29689 0.562492 4.68369 0.722652C5.07429 0.878902 5.41409 1.10351 5.70319 1.39648C5.99229 1.68554 6.22079 2.03515 6.38869 2.44531C6.55669 2.85156 6.64069 3.30468 6.64069 3.80468ZM5.02938 3.80468C5.02938 3.54687 4.98639 3.31445 4.90049 3.10742C4.81839 2.89648 4.70509 2.71679 4.56059 2.56835C4.41609 2.41601 4.24619 2.30077 4.05079 2.22265C3.85939 2.14062 3.65439 2.0996 3.43559 2.0996C3.21689 2.0996 3.00978 2.14062 2.81448 2.22265C2.62308 2.30077 2.45509 2.41601 2.31059 2.56835C2.16999 2.71679 2.05864 2.89648 1.97661 3.10742C1.89458 3.31445 1.85357 3.54687 1.85357 3.80468C1.85357 4.04687 1.89458 4.27148 1.97661 4.47851L1.83012 5.49804L2.81448 5.38085C3.00978 5.46679 3.21689 5.50976 3.43559 5.50976C3.65439 5.50976 3.85939 5.46874 4.05079 5.38671C4.24619 5.30468 4.41609 5.18945 4.56059 5.04101C4.70509 4.89257 4.81839 4.71288 4.90049 4.50195C4.98639 4.29101 5.02938 4.05859 5.02938 3.80468Z" fill="#E5E894"/>
</svg>
