<svg width="33" height="9" viewBox="0 0 33 9" fill="none" xmlns="http://www.w3.org/2000/svg">
<g clip-path="url(#clip0_102_7)">
<path d="M14.4029 5.50194C14.4029 5.99724 14.3141 6.45952 14.1366 6.88878C13.9592 7.31391 13.7178 7.68332 13.4123 7.99701C13.1068 8.30658 12.7478 8.55216 12.3351 8.73377C11.9264 8.91125 11.4868 9 11.0163 9C10.5499 9 10.1103 8.91125 9.69758 8.73377C9.28893 8.55216 8.92983 8.30658 8.62027 7.99701C8.31484 7.68332 8.07338 7.31391 7.8959 6.88878C7.71842 6.45952 7.62967 5.99724 7.62967 5.50194C7.62967 4.99839 7.71842 4.53198 7.8959 4.10272C8.07338 3.67346 8.31484 3.30405 8.62027 2.99449C8.92983 2.6808 9.28893 2.43522 9.69758 2.25774C10.1103 2.08025 10.5499 1.99152 11.0163 1.99152C11.4868 1.99152 11.9264 2.07612 12.3351 2.24535C12.7478 2.41045 13.1068 2.64778 13.4123 2.95735C13.7178 3.26278 13.9592 3.63219 14.1366 4.06558C14.3141 4.49484 14.4029 4.97362 14.4029 5.50194ZM12.7003 5.50194C12.7003 5.22953 12.6549 4.98395 12.5641 4.76519C12.4774 4.5423 12.3577 4.35244 12.205 4.19559C12.0523 4.03462 11.8728 3.91285 11.6663 3.83031C11.4641 3.74363 11.2475 3.70029 11.0163 3.70029C10.7852 3.70029 10.5664 3.74363 10.36 3.83031C10.1578 3.91285 9.98024 4.03462 9.82755 4.19559C9.67899 4.35244 9.56134 4.5423 9.47467 4.76519C9.38799 4.98395 9.34465 5.22953 9.34465 5.50194C9.34465 5.75785 9.38799 5.99518 9.47467 6.21394L9.31987 7.29121L10.36 7.16739C10.5664 7.25819 10.7852 7.3036 11.0163 7.3036C11.2475 7.3036 11.4641 7.26025 11.6663 7.17358C11.8728 7.0869 12.0523 6.96515 12.205 6.8083C12.3577 6.65145 12.4774 6.46158 12.5641 6.23871C12.6549 6.01582 12.7003 5.77023 12.7003 5.50194Z" fill="#6150DB"/>
<path d="M14.4029 5.50194C14.4029 5.99724 14.3141 6.45952 14.1366 6.88878C13.9592 7.31391 13.7178 7.68332 13.4123 7.99701C13.1068 8.30658 12.7478 8.55216 12.3351 8.73377C11.9264 8.91125 11.4868 9 11.0163 9C10.5499 9 10.1103 8.91125 9.69758 8.73377C9.28893 8.55216 8.92983 8.30658 8.62027 7.99701C8.31484 7.68332 8.07338 7.31391 7.8959 6.88878C7.71842 6.45952 7.62967 5.99724 7.62967 5.50194C7.62967 4.99839 7.71842 4.53198 7.8959 4.10272C8.07338 3.67346 8.31484 3.30405 8.62027 2.99449C8.92983 2.6808 9.28893 2.43522 9.69758 2.25774C10.1103 2.08025 10.5499 1.99152 11.0163 1.99152C11.4868 1.99152 11.9264 2.07612 12.3351 2.24535C12.7478 2.41045 13.1068 2.64778 13.4123 2.95735C13.7178 3.26278 13.9592 3.63219 14.1366 4.06558C14.3141 4.49484 14.4029 4.97362 14.4029 5.50194ZM12.7003 5.50194C12.7003 5.22953 12.6549 4.98395 12.5641 4.76519C12.4774 4.5423 12.3577 4.35244 12.205 4.19559C12.0523 4.03462 11.8728 3.91285 11.6663 3.83031C11.4641 3.74363 11.2475 3.70029 11.0163 3.70029C10.7852 3.70029 10.5664 3.74363 10.36 3.83031C10.1578 3.91285 9.98024 4.03462 9.82755 4.19559C9.67899 4.35244 9.56134 4.5423 9.47467 4.76519C9.38799 4.98395 9.34465 5.22953 9.34465 5.50194C9.34465 5.75785 9.38799 5.99518 9.47467 6.21394L9.31987 7.29121L10.36 7.16739C10.5664 7.25819 10.7852 7.3036 11.0163 7.3036C11.2475 7.3036 11.4641 7.26025 11.6663 7.17358C11.8728 7.0869 12.0523 6.96515 12.205 6.8083C12.3577 6.65145 12.4774 6.46158 12.5641 6.23871C12.6549 6.01582 12.7003 5.77023 12.7003 5.50194Z" fill="#6150DB"/>
<path d="M7.11374 4.43912C7.11374 4.84774 7.06008 5.24191 6.95277 5.62165C6.84958 5.99725 6.70098 6.35015 6.50699 6.68035C6.31301 7.00642 6.08187 7.30567 5.81357 7.57808C5.54528 7.84637 5.24604 8.07751 4.91584 8.2715C4.58564 8.46549 4.23068 8.61614 3.85095 8.72346C3.47535 8.82664 3.08324 8.87824 2.67462 8.87824H0V0H2.67462C3.08324 0 3.47535 0.0536582 3.85095 0.160973C4.23068 0.26416 4.58564 0.412749 4.91584 0.606747C5.24604 0.800735 5.54528 1.03394 5.81357 1.30635C6.08187 1.57464 6.31301 1.87388 6.50699 2.20408C6.70098 2.53016 6.84958 2.88305 6.95277 3.26279C7.06008 3.63839 7.11374 4.0305 7.11374 4.43912ZM5.33685 4.43912C5.33685 4.07177 5.26668 3.72713 5.12635 3.40518C4.99014 3.08323 4.80028 2.80257 4.55676 2.56318C4.31735 2.31965 4.03463 2.12773 3.70855 1.98739C3.38661 1.84705 3.04196 1.77689 2.67462 1.77689H1.78927V7.10135H2.67462C3.04196 7.10135 3.38661 7.03325 3.70855 6.89704C4.03463 6.75671 4.31735 6.56684 4.55676 6.32745C4.80028 6.08393 4.99014 5.80119 5.12635 5.47924C5.26668 5.15318 5.33685 4.80646 5.33685 4.43912Z" fill="#3A3961"/>
<path d="M7.11374 4.43912C7.11374 4.84774 7.06008 5.24191 6.95277 5.62165C6.84958 5.99725 6.70098 6.35015 6.50699 6.68035C6.31301 7.00642 6.08187 7.30567 5.81357 7.57808C5.54528 7.84637 5.24604 8.07751 4.91584 8.2715C4.58564 8.46549 4.23068 8.61614 3.85095 8.72346C3.47535 8.82664 3.08324 8.87824 2.67462 8.87824H0V0H2.67462C3.08324 0 3.47535 0.0536582 3.85095 0.160973C4.23068 0.26416 4.58564 0.412749 4.91584 0.606747C5.24604 0.800735 5.54528 1.03394 5.81357 1.30635C6.08187 1.57464 6.31301 1.87388 6.50699 2.20408C6.70098 2.53016 6.84958 2.88305 6.95277 3.26279C7.06008 3.63839 7.11374 4.0305 7.11374 4.43912ZM5.33685 4.43912C5.33685 4.07177 5.26668 3.72713 5.12635 3.40518C4.99014 3.08323 4.80028 2.80257 4.55676 2.56318C4.31735 2.31965 4.03463 2.12773 3.70855 1.98739C3.38661 1.84705 3.04196 1.77689 2.67462 1.77689H1.78927V7.10135H2.67462C3.04196 7.10135 3.38661 7.03325 3.70855 6.89704C4.03463 6.75671 4.31735 6.56684 4.55676 6.32745C4.80028 6.08393 4.99014 5.80119 5.12635 5.47924C5.26668 5.15318 5.33685 4.80646 5.33685 4.43912Z" fill="#3A3961"/>
<path d="M17.1436 8.87824L14.6176 2.24742H16.543L17.9917 6.38317L19.4343 2.24742H21.366L18.84 8.87824H17.1436Z" fill="#2FE2DE"/>
<path d="M24.4493 7.1323C24.5153 7.15294 24.5813 7.16739 24.6474 7.17564C24.7134 7.17977 24.7795 7.18183 24.8455 7.18183C25.0105 7.18183 25.1695 7.15912 25.3221 7.11373C25.4749 7.06833 25.6173 7.00435 25.7493 6.92179C25.8855 6.83512 26.0053 6.73194 26.1085 6.61224C26.2157 6.48841 26.3025 6.3522 26.3685 6.20362L27.6067 7.44805C27.4499 7.67094 27.2683 7.87112 27.0619 8.0486C26.8597 8.22609 26.6388 8.37674 26.3995 8.50057C26.1642 8.62439 25.9145 8.71725 25.6503 8.77917C25.3903 8.84521 25.122 8.87823 24.8455 8.87823C24.3791 8.87823 23.9394 8.79156 23.5267 8.61819C23.1181 8.44484 22.7591 8.20339 22.4495 7.89383C22.144 7.58426 21.9025 7.21691 21.725 6.79178C21.5476 6.36252 21.4589 5.89199 21.4589 5.38018C21.4589 4.85599 21.5476 4.3772 21.725 3.94382C21.9025 3.51042 22.144 3.14101 22.4495 2.83558C22.7591 2.53015 23.1181 2.29282 23.5267 2.12359C23.9394 1.95436 24.3791 1.86975 24.8455 1.86975C25.122 1.86975 25.3923 1.90276 25.6565 1.9688C25.9206 2.03484 26.1704 2.12978 26.4056 2.25361C26.6451 2.37742 26.8679 2.53015 27.0743 2.71175C27.2807 2.88924 27.4623 3.08942 27.6192 3.31231L24.4493 7.1323ZM25.316 3.64664C25.2376 3.61774 25.1591 3.59916 25.0807 3.59091C25.0064 3.58266 24.928 3.57853 24.8455 3.57853C24.6143 3.57853 24.3956 3.62187 24.1892 3.70854C23.987 3.79109 23.8095 3.9108 23.6568 4.06763C23.5081 4.22448 23.3905 4.41435 23.3039 4.63723C23.2172 4.85599 23.1738 5.10364 23.1738 5.38018C23.1738 5.44209 23.1759 5.51226 23.18 5.59068C23.1883 5.66911 23.1986 5.74959 23.211 5.83214C23.2275 5.91056 23.2461 5.98692 23.2667 6.06121C23.2874 6.13551 23.3142 6.20155 23.3472 6.25933L25.316 3.64664Z" fill="#E5E894"/>
<path d="M24.4493 7.1323C24.5153 7.15294 24.5813 7.16739 24.6474 7.17564C24.7134 7.17977 24.7795 7.18183 24.8455 7.18183C25.0105 7.18183 25.1695 7.15912 25.3221 7.11373C25.4749 7.06833 25.6173 7.00435 25.7493 6.92179C25.8855 6.83512 26.0053 6.73194 26.1085 6.61224C26.2157 6.48841 26.3025 6.3522 26.3685 6.20362L27.6067 7.44805C27.4499 7.67094 27.2683 7.87112 27.0619 8.0486C26.8597 8.22609 26.6388 8.37674 26.3995 8.50057C26.1642 8.62439 25.9145 8.71725 25.6503 8.77917C25.3903 8.84521 25.122 8.87823 24.8455 8.87823C24.3791 8.87823 23.9394 8.79156 23.5267 8.61819C23.1181 8.44484 22.7591 8.20339 22.4495 7.89383C22.144 7.58426 21.9025 7.21691 21.725 6.79178C21.5476 6.36252 21.4589 5.89199 21.4589 5.38018C21.4589 4.85599 21.5476 4.3772 21.725 3.94382C21.9025 3.51042 22.144 3.14101 22.4495 2.83558C22.7591 2.53015 23.1181 2.29282 23.5267 2.12359C23.9394 1.95436 24.3791 1.86975 24.8455 1.86975C25.122 1.86975 25.3923 1.90276 25.6565 1.9688C25.9206 2.03484 26.1704 2.12978 26.4056 2.25361C26.6451 2.37742 26.8679 2.53015 27.0743 2.71175C27.2807 2.88924 27.4623 3.08942 27.6192 3.31231L24.4493 7.1323ZM25.316 3.64664C25.2376 3.61774 25.1591 3.59916 25.0807 3.59091C25.0064 3.58266 24.928 3.57853 24.8455 3.57853C24.6143 3.57853 24.3956 3.62187 24.1892 3.70854C23.987 3.79109 23.8095 3.9108 23.6568 4.06763C23.5081 4.22448 23.3905 4.41435 23.3039 4.63723C23.2172 4.85599 23.1738 5.10364 23.1738 5.38018C23.1738 5.44209 23.1759 5.51226 23.18 5.59068C23.1883 5.66911 23.1986 5.74959 23.211 5.83214C23.2275 5.91056 23.2461 5.98692 23.2667 6.06121C23.2874 6.13551 23.3142 6.20155 23.3472 6.25933L25.316 3.64664Z" fill="#E5E894"/>
<path d="M30.1638 8.87824H28.4736V2.24742H28.8822L29.4393 3.03371C29.7117 2.78606 30.0213 2.5962 30.368 2.46412C30.7148 2.32791 31.0739 2.25981 31.4454 2.25981H32.9374V3.94382H31.4454C31.2679 3.94382 31.1007 3.97684 30.9439 4.04288C30.787 4.10892 30.6508 4.19973 30.5352 4.31529C30.4197 4.43087 30.3288 4.56707 30.2628 4.72392C30.1967 4.88076 30.1638 5.04793 30.1638 5.22541V8.87824Z" fill="#D51454"/>
</g>
<defs>
<clipPath id="clip0_102_7">
<rect width="33" height="9" fill="white"/>
</clipPath>
</defs>
</svg>
