<svg width="38" height="11" viewBox="0 0 38 11" fill="none" xmlns="http://www.w3.org/2000/svg">
<path d="M9.05079 5.50376C9.05079 6.14412 8.93604 6.74178 8.70653 7.29676C8.47716 7.8464 8.16501 8.324 7.77007 8.72956C7.37513 9.12979 6.91093 9.4473 6.37734 9.68209C5.84893 9.91155 5.28063 10.0263 4.67231 10.0263C4.06931 10.0263 3.50102 9.91155 2.96742 9.68209C2.43908 9.4473 1.97481 9.12979 1.57459 8.72956C1.1797 8.324 0.867535 7.8464 0.638072 7.29676C0.408609 6.74178 0.293869 6.14412 0.293869 5.50376C0.293869 4.85273 0.408609 4.24972 0.638072 3.69474C0.867535 3.13977 1.1797 2.66216 1.57459 2.26194C1.97481 1.85639 2.43908 1.53888 2.96742 1.30941C3.50102 1.07995 4.06931 0.965225 4.67231 0.965225C5.28063 0.965225 5.84893 1.07461 6.37734 1.2934C6.91093 1.50686 7.37513 1.81369 7.77007 2.21392C8.16501 2.6088 8.47716 3.08641 8.70653 3.64672C8.93604 4.2017 9.05079 4.82071 9.05079 5.50376ZM6.84959 5.50376C6.84959 5.15156 6.79085 4.83405 6.6735 4.55123C6.56135 4.26307 6.40657 4.01759 6.20917 3.81481C6.01177 3.6067 5.77967 3.44927 5.51273 3.34255C5.25126 3.23049 4.97121 3.17445 4.67231 3.17445C4.37354 3.17445 4.09062 3.23049 3.82382 3.34255C3.56235 3.44927 3.33285 3.6067 3.13545 3.81481C2.94338 4.01759 2.79127 4.26307 2.67921 4.55123C2.56715 4.83405 2.51111 5.15156 2.51111 5.50376C2.51111 5.83461 2.56715 6.14145 2.67921 6.42428L2.47908 7.81705L3.82382 7.65696C4.09062 7.77436 4.37354 7.83306 4.67231 7.83306C4.97121 7.83306 5.25126 7.77703 5.51273 7.66496C5.77967 7.5529 6.01177 7.39549 6.20917 7.19271C6.40657 6.98992 6.56135 6.74445 6.6735 6.4563C6.79085 6.16813 6.84959 5.85062 6.84959 5.50376Z" fill="#6150DB"/>
<path d="M9.05079 5.50376C9.05079 6.14412 8.93604 6.74178 8.70653 7.29676C8.47716 7.8464 8.16501 8.324 7.77007 8.72956C7.37513 9.12979 6.91093 9.4473 6.37734 9.68209C5.84893 9.91155 5.28063 10.0263 4.67231 10.0263C4.06931 10.0263 3.50102 9.91155 2.96742 9.68209C2.43908 9.4473 1.97481 9.12979 1.57459 8.72956C1.1797 8.324 0.867535 7.8464 0.638072 7.29676C0.408609 6.74178 0.293869 6.14412 0.293869 5.50376C0.293869 4.85273 0.408609 4.24972 0.638072 3.69474C0.867535 3.13977 1.1797 2.66216 1.57459 2.26194C1.97481 1.85639 2.43908 1.53888 2.96742 1.30941C3.50102 1.07995 4.06931 0.965225 4.67231 0.965225C5.28063 0.965225 5.84893 1.07461 6.37734 1.2934C6.91093 1.50686 7.37513 1.81369 7.77007 2.21392C8.16501 2.6088 8.47716 3.08641 8.70653 3.64672C8.93604 4.2017 9.05079 4.82071 9.05079 5.50376ZM6.84959 5.50376C6.84959 5.15156 6.79085 4.83405 6.6735 4.55123C6.56135 4.26307 6.40657 4.01759 6.20917 3.81481C6.01177 3.6067 5.77967 3.44927 5.51273 3.34255C5.25126 3.23049 4.97121 3.17445 4.67231 3.17445C4.37354 3.17445 4.09062 3.23049 3.82382 3.34255C3.56235 3.44927 3.33285 3.6067 3.13545 3.81481C2.94338 4.01759 2.79127 4.26307 2.67921 4.55123C2.56715 4.83405 2.51111 5.15156 2.51111 5.50376C2.51111 5.83461 2.56715 6.14145 2.67921 6.42428L2.47908 7.81705L3.82382 7.65696C4.09062 7.77436 4.37354 7.83306 4.67231 7.83306C4.97121 7.83306 5.25126 7.77703 5.51273 7.66496C5.77967 7.5529 6.01177 7.39549 6.20917 7.19271C6.40657 6.98992 6.56135 6.74445 6.6735 6.4563C6.79085 6.16813 6.84959 5.85062 6.84959 5.50376Z" fill="#6150DB"/>
<path d="M15.3105 5.49902C15.3105 5.82129 15.2682 6.13216 15.1836 6.43164C15.1022 6.72786 14.985 7.00618 14.832 7.2666C14.679 7.52376 14.4967 7.75977 14.2852 7.97461C14.0736 8.1862 13.8376 8.36849 13.5771 8.52148C13.3167 8.67448 13.0368 8.79329 12.7373 8.87793C12.4411 8.95931 12.1318 9 11.8096 9H9.7002V1.99805H11.8096C12.1318 1.99805 12.4411 2.04036 12.7373 2.125C13.0368 2.20638 13.3167 2.32357 13.5771 2.47656C13.8376 2.62956 14.0736 2.81348 14.2852 3.02832C14.4967 3.23991 14.679 3.47591 14.832 3.73633C14.985 3.99349 15.1022 4.27181 15.1836 4.57129C15.2682 4.86751 15.3105 5.17676 15.3105 5.49902ZM13.9092 5.49902C13.9092 5.20931 13.8538 4.9375 13.7432 4.68359C13.6357 4.42969 13.486 4.20833 13.2939 4.01953C13.1051 3.82747 12.8822 3.67611 12.625 3.56543C12.3711 3.45475 12.0993 3.39941 11.8096 3.39941H11.1113V7.59863H11.8096C12.0993 7.59863 12.3711 7.54492 12.625 7.4375C12.8822 7.32682 13.1051 7.17708 13.2939 6.98828C13.486 6.79622 13.6357 6.57324 13.7432 6.31934C13.8538 6.06217 13.9092 5.78874 13.9092 5.49902ZM21.1553 6.33887C21.1553 6.72949 21.0853 7.09408 20.9453 7.43262C20.8053 7.7679 20.6149 8.05924 20.374 8.30664C20.1331 8.55078 19.8499 8.74447 19.5244 8.8877C19.2021 9.02767 18.8555 9.09766 18.4844 9.09766C18.1165 9.09766 17.7699 9.02767 17.4443 8.8877C17.1221 8.74447 16.8389 8.55078 16.5947 8.30664C16.3538 8.05924 16.1634 7.7679 16.0234 7.43262C15.8835 7.09408 15.8135 6.72949 15.8135 6.33887C15.8135 5.94173 15.8835 5.57389 16.0234 5.23535C16.1634 4.89681 16.3538 4.60547 16.5947 4.36133C16.8389 4.11393 17.1221 3.92025 17.4443 3.78027C17.7699 3.6403 18.1165 3.57031 18.4844 3.57031C18.8555 3.57031 19.2021 3.63704 19.5244 3.77051C19.8499 3.90072 20.1331 4.08789 20.374 4.33203C20.6149 4.57292 20.8053 4.86426 20.9453 5.20605C21.0853 5.5446 21.1553 5.9222 21.1553 6.33887ZM19.8125 6.33887C19.8125 6.12402 19.7767 5.93034 19.7051 5.75781C19.6367 5.58203 19.5423 5.43229 19.4219 5.30859C19.3014 5.18164 19.1598 5.08561 18.9971 5.02051C18.8376 4.95215 18.6667 4.91797 18.4844 4.91797C18.3021 4.91797 18.1296 4.95215 17.9668 5.02051C17.8073 5.08561 17.6673 5.18164 17.5469 5.30859C17.4297 5.43229 17.3369 5.58203 17.2686 5.75781C17.2002 5.93034 17.166 6.12402 17.166 6.33887C17.166 6.54069 17.2002 6.72786 17.2686 6.90039C17.3369 7.07292 17.4297 7.22266 17.5469 7.34961C17.6673 7.47656 17.8073 7.57747 17.9668 7.65234C18.1296 7.72396 18.3021 7.75977 18.4844 7.75977C18.6667 7.75977 18.8376 7.72559 18.9971 7.65723C19.1598 7.58887 19.3014 7.49284 19.4219 7.36914C19.5423 7.24544 19.6367 7.0957 19.7051 6.91992C19.7767 6.74414 19.8125 6.55046 19.8125 6.33887ZM23.2207 9L21.2285 3.77051H22.7471L23.8896 7.03223L25.0273 3.77051H26.5508L24.5586 9H23.2207ZM28.9824 7.7207C29.0345 7.73698 29.0866 7.74837 29.1387 7.75488C29.1908 7.75814 29.2428 7.75977 29.2949 7.75977C29.4251 7.75977 29.5505 7.74186 29.6709 7.70605C29.7913 7.67025 29.9036 7.61979 30.0078 7.55469C30.1152 7.48633 30.2096 7.40495 30.291 7.31055C30.3757 7.21289 30.444 7.10547 30.4961 6.98828L31.4727 7.96973C31.349 8.14551 31.2057 8.30339 31.043 8.44336C30.8835 8.58333 30.7093 8.70215 30.5205 8.7998C30.335 8.89746 30.138 8.9707 29.9297 9.01953C29.7246 9.07161 29.513 9.09766 29.2949 9.09766C28.9271 9.09766 28.5804 9.0293 28.2549 8.89258C27.9326 8.75586 27.6494 8.56543 27.4053 8.32129C27.1644 8.07715 26.974 7.78743 26.834 7.45215C26.694 7.11361 26.624 6.74251 26.624 6.33887C26.624 5.92546 26.694 5.54785 26.834 5.20605C26.974 4.86426 27.1644 4.57292 27.4053 4.33203C27.6494 4.09115 27.9326 3.90397 28.2549 3.77051C28.5804 3.63704 28.9271 3.57031 29.2949 3.57031C29.513 3.57031 29.7262 3.59635 29.9346 3.64844C30.1429 3.70052 30.3398 3.77539 30.5254 3.87305C30.7142 3.9707 30.89 4.09115 31.0527 4.23438C31.2155 4.37435 31.3587 4.53223 31.4824 4.70801L28.9824 7.7207ZM29.666 4.97168C29.6042 4.94889 29.5423 4.93424 29.4805 4.92773C29.4219 4.92122 29.36 4.91797 29.2949 4.91797C29.1126 4.91797 28.9401 4.95215 28.7773 5.02051C28.6178 5.08561 28.4779 5.18001 28.3574 5.30371C28.2402 5.42741 28.1475 5.57715 28.0791 5.75293C28.0107 5.92546 27.9766 6.12077 27.9766 6.33887C27.9766 6.3877 27.9782 6.44303 27.9814 6.50488C27.988 6.56673 27.9961 6.63021 28.0059 6.69531C28.0189 6.75716 28.0335 6.81738 28.0498 6.87598C28.0661 6.93457 28.0872 6.98665 28.1133 7.03223L29.666 4.97168ZM33.4893 9H32.1562V3.77051H32.4785L32.918 4.39062C33.1328 4.19531 33.377 4.04557 33.6504 3.94141C33.9238 3.83398 34.207 3.78027 34.5 3.78027H35.6768V5.1084H34.5C34.36 5.1084 34.2282 5.13444 34.1045 5.18652C33.9808 5.23861 33.8734 5.31022 33.7822 5.40137C33.6911 5.49251 33.6195 5.59993 33.5674 5.72363C33.5153 5.84733 33.4893 5.97917 33.4893 6.11914V9Z" fill="white"/>
</svg>
