<svg width="7" height="8" viewBox="0 0 7 8" fill="none" xmlns="http://www.w3.org/2000/svg">
<path d="M6.41017 3.80468C6.41017 4.27343 6.32617 4.71093 6.15817 5.11718C5.99027 5.51952 5.76177 5.86913 5.47267 6.16601C5.18357 6.45898 4.84377 6.6914 4.45317 6.86327C4.06637 7.03124 3.65037 7.11523 3.20507 7.11523C2.76367 7.11523 2.34767 7.03124 1.95707 6.86327C1.57032 6.6914 1.23047 6.45898 0.9375 6.16601C0.64844 5.86913 0.419931 5.51952 0.251961 5.11718C0.0839908 4.71093 0 4.27343 0 3.80468C0 3.32812 0.0839908 2.88671 0.251961 2.48046C0.419931 2.07421 0.64844 1.7246 0.9375 1.43163C1.23047 1.13476 1.57032 0.902342 1.95707 0.734372C2.34767 0.566402 2.76367 0.482422 3.20507 0.482422C3.65037 0.482422 4.06637 0.562492 4.45317 0.722652C4.84377 0.878902 5.18357 1.10351 5.47267 1.39648C5.76177 1.68554 5.99027 2.03515 6.15817 2.44531C6.32617 2.85156 6.41017 3.30468 6.41017 3.80468ZM4.79887 3.80468C4.79887 3.54687 4.75587 3.31445 4.66997 3.10742C4.58787 2.89648 4.47457 2.71679 4.33007 2.56835C4.18557 2.41601 4.01567 2.30077 3.82027 2.22265C3.62887 2.14062 3.42387 2.0996 3.20507 2.0996C2.98637 2.0996 2.77927 2.14062 2.58397 2.22265C2.39257 2.30077 2.22457 2.41601 2.08007 2.56835C1.93947 2.71679 1.82813 2.89648 1.7461 3.10742C1.66407 3.31445 1.62305 3.54687 1.62305 3.80468C1.62305 4.04687 1.66407 4.27148 1.7461 4.47851L1.5996 5.49804L2.58397 5.38085C2.77927 5.46679 2.98637 5.50976 3.20507 5.50976C3.42387 5.50976 3.62887 5.46874 3.82027 5.38671C4.01567 5.30468 4.18557 5.18945 4.33007 5.04101C4.47457 4.89257 4.58787 4.71288 4.66997 4.50195C4.75587 4.29101 4.79887 4.05859 4.79887 3.80468Z" fill="#6150DB"/>
<path d="M6.41017 3.80468C6.41017 4.27343 6.32617 4.71093 6.15817 5.11718C5.99027 5.51952 5.76177 5.86913 5.47267 6.16601C5.18357 6.45898 4.84377 6.6914 4.45317 6.86327C4.06637 7.03124 3.65037 7.11523 3.20507 7.11523C2.76367 7.11523 2.34767 7.03124 1.95707 6.86327C1.57032 6.6914 1.23047 6.45898 0.9375 6.16601C0.64844 5.86913 0.419931 5.51952 0.251961 5.11718C0.0839908 4.71093 0 4.27343 0 3.80468C0 3.32812 0.0839908 2.88671 0.251961 2.48046C0.419931 2.07421 0.64844 1.7246 0.9375 1.43163C1.23047 1.13476 1.57032 0.902342 1.95707 0.734372C2.34767 0.566402 2.76367 0.482422 3.20507 0.482422C3.65037 0.482422 4.06637 0.562492 4.45317 0.722652C4.84377 0.878902 5.18357 1.10351 5.47267 1.39648C5.76177 1.68554 5.99027 2.03515 6.15817 2.44531C6.32617 2.85156 6.41017 3.30468 6.41017 3.80468ZM4.79887 3.80468C4.79887 3.54687 4.75587 3.31445 4.66997 3.10742C4.58787 2.89648 4.47457 2.71679 4.33007 2.56835C4.18557 2.41601 4.01567 2.30077 3.82027 2.22265C3.62887 2.14062 3.42387 2.0996 3.20507 2.0996C2.98637 2.0996 2.77927 2.14062 2.58397 2.22265C2.39257 2.30077 2.22457 2.41601 2.08007 2.56835C1.93947 2.71679 1.82813 2.89648 1.7461 3.10742C1.66407 3.31445 1.62305 3.54687 1.62305 3.80468C1.62305 4.04687 1.66407 4.27148 1.7461 4.47851L1.5996 5.49804L2.58397 5.38085C2.77927 5.46679 2.98637 5.50976 3.20507 5.50976C3.42387 5.50976 3.62887 5.46874 3.82027 5.38671C4.01567 5.30468 4.18557 5.18945 4.33007 5.04101C4.47457 4.89257 4.58787 4.71288 4.66997 4.50195C4.75587 4.29101 4.79887 4.05859 4.79887 3.80468Z" fill="#6150DB"/>
</svg>
